#!OML:ASF F:\VICON\USERDATA\INSTALL\rory3\rory3.ASF
:FULLY-SPECIFIED
:DEGREES
213
root 0.695317 24.8877 -15.1287 2.7871 -0.606601 1.27409
lowerback 10.9331 0.96101 1.96668
upperback -1.27713 1.68716 1.89289
thorax -7.5007 0.78326 0.601142
lowerneck -14.0156 -4.44647 -9.67775
upperneck 14.9452 -5.45798 8.23582
head 7.39026 -2.44189 3.71065
rclavicle -1.98785e-015 1.98785e-014
rhumerus -47.414 -6.86302 -77.8259
rradius 38.8278
rwrist -2.97877
rhand -23.6771 15.1455
rfingers 7.12502
rthumb 2.78921 -14.816
lclavicle -1.98785e-015 1.98785e-014
lhumerus -44.3614 8.19748 84.187
lradius 41.0802
lwrist 8.72805
lhand -27.5244 20.9558
lfingers 7.12502
lthumb -0.92656 50.9335
rfemur -12.7211 -2.4911 18.4334
rtibia 26.6571
rfoot 14.5766 -7.30322
rtoes 8.34424
lfemur -16.4013 2.15576 -17.8121
ltibia 30.5227
lfoot 14.7608 -2.66683
ltoes 1.6089
214
root 0.693096 24.6582 -15.0884 2.6449 -0.536805 1.38901
lowerback 10.752 0.921152 1.95428
upperback -1.33248 1.62616 1.86731
thorax -7.45595 0.753856 0.594157
lowerneck -14.032 -4.454 -9.19092
upperneck 15.0326 -5.48712 7.74134
head 7.39603 -2.47111 3.46227
rclavicle -4.47266e-015 -2.38542e-015
rhumerus -47.9551 -5.47048 -78.4451
rradius 40.2761
rwrist -3.27314
rhand -23.8754 16.3428
rfingers 7.12502
rthumb 2.59767 -13.6211
lclavicle -4.47266e-015 -2.38542e-015
lhumerus -45.076 7.38026 84.4628
lradius 42.5022
lwrist 8.95725
lhand -28.0201 20.8947
lfingers 7.12502
lthumb -1.40534 50.8699
rfemur -12.4759 -2.37987 18.2742
rtibia 26.8969
rfoot 14.7985 -6.86959
rtoes 7.64739
lfemur -16.166 2.2221 -17.9524
ltibia 30.4234
lfoot 14.6621 -2.79782
ltoes 0.588996
215
root 0.695442 24.4173 -15.0474 2.39411 -0.669686 1.56658
lowerback 10.508 0.917714 1.82915
upperback -1.28342 1.59816 1.90242
thorax -7.2683 0.747878 0.710214
lowerneck -13.926 -4.306 -9.2429
upperneck 14.8261 -5.24411 7.59361
head 7.28562 -2.37325 3.44906
rclavicle -4.77083e-015 -3.97569e-015
rhumerus -48.3938 -3.92782 -78.9363
rradius 41.6074
rwrist -3.54682
rhand -24.1048 15.7333
rfingers 7.12502
rthumb 2.37613 -14.2332
lclavicle -4.77083e-015 -3.97569e-015
lhumerus -45.6989 6.71028 84.8604
lradius 43.9981
lwrist 9.20097
lhand -28.4192 22.1197
lfingers 7.12502
lthumb -1.79082 52.0919
rfemur -12.1327 -2.19834 17.9961
rtibia 27.1405
rfoot 14.7502 -6.42704
rtoes 6.12419
lfemur -15.8298 2.33232 -18.185
ltibia 30.3546
lfoot 14.6488 -3.02101
ltoes -0.301111
216
root 0.689164 24.1652 -15.0144 2.19954 -0.57175 1.57549
lowerback 10.2287 0.963132 1.93057
upperback -1.23532 1.6537 1.79795
thorax -7.05128 0.770587 0.538585
lowerneck -13.9724 -4.33282 -8.84762
upperneck 14.7593 -5.328 7.42356
head 7.26362 -2.40479 3.31699
rclavicle 3.00165e-014 1.35174e-014
rhumerus -48.9873 -2.92463 -79.5896
rradius 43.1886
rwrist -4.0138
rhand -24.395 14.458
rfingers 7.12502
rthumb 2.09591 -15.5114
lclavicle 3.00165e-014 1.35174e-014
lhumerus -46.263 5.26298 85.2788
lradius 45.7341
lwrist 9.73913
lhand -28.4528 22.834
lfingers 7.12502
lthumb -1.82323 52.8059
rfemur -11.8063 -1.97972 17.9389
rtibia 27.3077
rfoot 14.5864 -6.25997
rtoes 5.6512
lfemur -15.667 2.2925 -18.1535
ltibia 30.3893
lfoot 14.8314 -3.26869
ltoes 0.237098
217
root 0.682448 23.902 -14.9835 2.09333 -0.298121 1.71223
lowerback 9.95224 0.87 1.91616
upperback -1.45391 1.51718 1.682
thorax -7.12345 0.70103 0.44984
lowerneck -13.4771 -4.6005 -8.36959
upperneck 14.8519 -5.79499 7.15611
head 7.22515 -2.63485 3.1045
rclavicle 8.44835e-015 -4.29375e-014
rhumerus -50.0949 -1.78715 -80.2297
rradius 44.9714
rwrist -4.14198
rhand -24.6997 13.2051
rfingers 7.12502
rthumb 1.8016 -16.7671
lclavicle 8.44835e-015 -4.29375e-014
lhumerus -47.2189 4.01315 85.5634
lradius 47.2525
lwrist 10.2674
lhand -28.1829 21.9628
lfingers 7.12502
lthumb -1.56252 51.9368
rfemur -11.5214 -1.90987 17.7574
rtibia 27.4204
rfoot 14.6666 -5.96673
rtoes 6.37432
lfemur -15.5703 2.1825 -18.2537
ltibia 30.4225
lfoot 15.2406 -3.80057
ltoes 0.629177
218
root 0.680528 23.6286 -14.9504 1.97757 -0.152985 1.67579
lowerback 9.80343 0.820722 1.99937
upperback -1.38298 1.45854 1.73598
thorax -6.9626 0.671784 0.471545
lowerneck -14.3454 -4.89281 -8.19623
upperneck 15.052 -6.11053 6.79825
head 7.4513 -2.78879 2.90844
rclavicle 1.13307e-014 4.77083e-015
rhumerus -50.3401 -0.63429 -80.7199
rradius 46.5367
rwrist -4.4695
rhand -24.9212 12.1603
rfingers 7.12502
rthumb 1.58767 -17.8136
lclavicle 1.13307e-014 4.77083e-015
lhumerus -47.4847 3.26595 85.8557
lradius 48.6107
lwrist 9.9426
lhand -26.9031 20.993
lfingers 7.12502
lthumb -0.32654 50.9725
rfemur -11.2023 -1.75572 17.7428
rtibia 27.4951
rfoot 14.9391 -5.70246
rtoes 7.85909
lfemur -15.4108 2.18193 -18.1793
ltibia 30.4237
lfoot 15.5708 -4.45966
ltoes -0.0688387
219
root 0.677092 23.3434 -14.9147 1.81841 -0.10815 1.76165
lowerback 9.67761 0.766758 1.81328
upperback -1.59707 1.37419 1.85114
thorax -7.12639 0.639031 0.711678
lowerneck -14.2131 -4.28818 -8.73318
upperneck 15.961 -5.2904 7.186
head 7.68536 -2.39698 3.2291
rclavicle 1.78906e-014 -6.36111e-015
rhumerus -51.2082 0.832368 -81.1167
rradius 48.1953
rwrist -4.85463
rhand -24.576 10.8557
rfingers 7.12502
rthumb 1.92104 -19.1154
lclavicle 1.78906e-014 -6.36111e-015
lhumerus -48.7346 2.75719 85.9289
lradius 50.4889
lwrist 8.85271
lhand -25.8795 19.9033
lfingers 7.12502
lthumb 0.662092 49.8821
rfemur -10.8616 -1.56093 17.5968
rtibia 27.566
rfoot 15.1594 -5.33338
rtoes 7.85197
lfemur -15.251 2.25489 -18.2446
ltibia 30.3916
lfoot 15.9796 -5.05777
ltoes -0.416619
220
root 0.675334 23.0449 -14.8734 1.60142 -0.0242955 2.03431
lowerback 9.30063 0.739189 1.61441
upperback -1.60404 1.2963 1.7642
thorax -6.91972 0.608561 0.748506
lowerneck -13.3627 -4.6802 -8.50274
upperneck 15.0282 -5.83733 6.8324
head 7.26043 -2.69336 3.0169
rclavicle -2.16178e-014 -1.43125e-014
rhumerus -51.9779 1.83696 -81.477
rradius 50.0472
rwrist -4.99265
rhand -23.9534 10.6616
rfingers 7.12502
rthumb 2.52237 -19.3032
lclavicle -2.16178e-014 -1.43125e-014
lhumerus -49.7005 1.77514 86.0682
lradius 52.2888
lwrist 8.80711
lhand -25.326 19.8385
lfingers 7.12502
lthumb 1.19668 49.8149
rfemur -10.3886 -1.48913 17.2314
rtibia 27.5786
rfoot 15.2596 -4.91009
rtoes 6.73402
lfemur -14.9851 2.19423 -18.5217
ltibia 30.3726
lfoot 16.4806 -5.66143
ltoes -0.188662
221
root 0.674652 22.7294 -14.8356 1.37035 0.0504627 2.2259
lowerback 8.92986 0.763493 1.64768
upperback -1.31966 1.30176 1.57345
thorax -6.40053 0.609761 0.534168
lowerneck -14.4908 -4.53011 -8.62915
upperneck 15.9011 -5.63832 7.2746
head 7.7442 -2.54222 3.19641
rclavicle -8.29926e-015 -1.11319e-014
rhumerus -52.0193 2.39694 -81.821
rradius 51.5545
rwrist -4.89326
rhand -23.6807 11.3882
rfingers 7.12502
rthumb 2.7857 -18.5734
lclavicle -8.29926e-015 -1.11319e-014
lhumerus -49.8923 0.359657 86.4397
lradius 53.9244
lwrist 10.2346
lhand -24.8801 23.6737
lfingers 7.12502
lthumb 1.62736 53.6472
rfemur -9.95124 -1.35183 16.9495
rtibia 27.5666
rfoot 15.4112 -4.6663
rtoes 7.34718
lfemur -14.6505 2.19387 -18.6949
ltibia 30.35
lfoot 16.8371 -6.43454
ltoes -1.20101
222
root 0.669266 22.4018 -14.8059 1.16912 -0.00911329 2.23785
lowerback 8.98918 0.469715 1.36443
upperback -1.31377 0.908117 2.01998
thorax -6.44101 0.435557 1.21758
lowerneck -15.0903 -4.12643 -9.67165
upperneck 16.2647 -4.85693 7.53201
head 7.93684 -2.19954 3.54559
rclavicle -6.31141e-015 -2.38542e-014
rhumerus -51.975 4.7637 -81.9095
rradius 52.7185
rwrist -5.09342
rhand -23.5443 11.6775
rfingers 7.12502
rthumb 2.91745 -18.2823
lclavicle -6.31141e-015 -2.38542e-014
lhumerus -50.623 0.825097 86.8827
lradius 55.7064
lwrist 10.4717
lhand -25 25.8781
lfingers 7.12502
lthumb 1.51156 55.8525
rfemur -9.61181 -0.99387 16.9058
rtibia 27.5124
rfoot 15.6078 -4.50238
rtoes 8.24112
lfemur -14.3908 2.2502 -18.629
ltibia 30.3631
lfoot 16.9538 -7.06372
ltoes -3.59706
223
root 0.666145 22.0666 -14.7743 1.0115 -0.158529 2.24975
lowerback 9.12328 0.383895 1.24364
upperback -1.51688 0.801867 2.21482
thorax -6.7366 0.391511 1.50618
lowerneck -14.9038 -3.99593 -9.90739
upperneck 15.9907 -4.60007 7.3944
head 7.7922 -2.10781 3.56733
rclavicle 1.59028e-015 3.18055e-015
rhumerus -52.5956 6.28418 -82.0965
rradius 54.1951
rwrist -5.35484
rhand -23.6658 11.3292
rfingers 7.12502
rthumb 2.80012 -18.6321
lclavicle 1.59028e-015 3.18055e-015
lhumerus -51.7291 0.520828 87.1387
lradius 57.6238
lwrist 9.33502
lhand -25.2245 25.6599
lfingers 7.12502
lthumb 1.29476 55.6357
rfemur -9.26277 -0.594893 16.8594
rtibia 27.3691
rfoot 16.1283 -4.26915
rtoes 10.0249
lfemur -14.2338 2.28508 -18.583
ltibia 30.4633
lfoot 17.3211 -7.42797
ltoes -5.47786
224
root 0.665374 21.7251 -14.7331 0.82765 -0.247026 2.45644
lowerback 8.80154 0.404632 1.08721
upperback -1.45824 0.800165 2.19085
thorax -6.49214 0.396404 1.56983
lowerneck -14.4417 -4.23471 -9.54073
upperneck 14.9054 -4.9083 6.87026
head 7.3614 -2.28417 3.28949
rclavicle 8.54774e-015 -3.18055e-015
rhumerus -52.9528 7.0539 -82.1742
rradius 55.7397
rwrist -5.21534
rhand -23.6748 10.6597
rfingers 7.12502
rthumb 2.79138 -19.3018
lclavicle 8.54774e-015 -3.18055e-015
lhumerus -52.3788 -0.23343 87.3213
lradius 59.3985
lwrist 8.69642
lhand -24.753 27.0812
lfingers 7.12502
lthumb 1.75008 57.0537
rfemur -8.83139 -0.398625 16.5701
rtibia 27.2018
rfoot 16.4952 -4.13095
rtoes 12.3239
lfemur -13.9675 2.33603 -18.7839
ltibia 30.5364
lfoot 17.935 -7.84624
ltoes -5.92379
